<svg xmlns="http://www.w3.org/2000/svg" width="1280" height="570"><defs><linearGradient id="e" x1="0%" x2="100%" y1="0%" y2="0%"><stop offset="0%" stop-color="#1d4ed8"/><stop offset="100%" stop-color="#60a5fa"/></linearGradient><linearGradient id="g" x1="0%" x2="100%" y1="0%" y2="0%"><stop offset="0%" stop-color="#15803d"/><stop offset="100%" stop-color="#4ade80"/></linearGradient><linearGradient id="i" x1="0%" x2="100%" y1="0%" y2="0%"><stop offset="0%" stop-color="#6b21a8"/><stop offset="100%" stop-color="#c084fc"/></linearGradient><linearGradient id="k" x1="0%" x2="100%" y1="0%" y2="0%"><stop offset="0%" stop-color="#9a3412"/><stop offset="100%" stop-color="#fb923c"/></linearGradient><linearGradient id="m" x1="0%" x2="100%" y1="0%" y2="0%"><stop offset="0%" stop-color="#0e7490"/><stop offset="100%" stop-color="#67e8f9"/></linearGradient><linearGradient id="c" x1="0%" x2="100%" y1="0%" y2="0%"><stop offset="0%" stop-color="#f1f5f9"/><stop offset="75%" stop-color="#e2e8f0"/><stop offset="100%" stop-color="#93c5fd"/></linearGradient><clipPath id="f"><rect width="51" height="34" x="80" y="222" rx="8"/></clipPath><clipPath id="h"><rect width="185" height="34" x="131" y="266" rx="8"/></clipPath><clipPath id="j"><rect width="365" height="34" x="316" y="310" rx="8"/></clipPath><clipPath id="l"><rect width="510" height="34" x="681" y="354" rx="8"/></clipPath><radialGradient id="a" cx="50%" cy="20%" r="68%" gradientUnits="userSpaceOnUse"><stop offset="0%" stop-color="#0e1825"/><stop offset="52%" stop-color="#090d14"/><stop offset="100%" stop-color="#06080e"/></radialGradient><pattern id="b" width="30" height="30" x="0" y="0" patternUnits="userSpaceOnUse"><circle cx="15" cy="15" r=".65" fill="#fff" opacity=".033"/></pattern><filter id="d" width="160%" height="360%" x="-30%" y="-130%"><feGaussianBlur in="SourceGraphic" stdDeviation="10"/></filter></defs><path fill="url(#a)" d="M0 0h1280v570H0z"/><path fill="url(#b)" d="M0 0h1280v570H0z"/><ellipse cx="640" fill="#1e40af" opacity=".055" rx="520" ry="210"/><text x="640" y="112" fill="url(#c)" font-family="'SFMono-Regular','Cascadia Code','Fira Code','Liberation Mono','Courier New',monospace" font-size="96" font-weight="700" letter-spacing="-3" text-anchor="middle">httptap</text><text x="640" y="150" fill="#64748b" font-family="'SFMono-Regular','Cascadia Code','Fira Code',monospace" font-size="17" letter-spacing=".3" text-anchor="middle">
    HTTP request profiler · phase-by-phase timing
  </text><text x="640" y="182" font-family="'SFMono-Regular','Cascadia Code','Fira Code',monospace" font-size="13" letter-spacing=".4" text-anchor="middle">
    <tspan fill="#60a5fa">DNS</tspan><tspan fill="#3d5570">  ·  </tspan><tspan fill="#4ade80">Connect</tspan><tspan fill="#3d5570">  ·  </tspan><tspan fill="#c084fc">TLS</tspan><tspan fill="#3d5570">  ·  </tspan><tspan fill="#fb923c">Wait</tspan><tspan fill="#3d5570">  ·  </tspan><tspan fill="#67e8f9">Transfer</tspan>
  </text><path stroke="#1e293b" d="M440 200h400"/><text x="640" y="216" fill="#334966" font-family="'SFMono-Regular','Cascadia Code','Fira Code',monospace" font-size="11" letter-spacing=".2" text-anchor="middle">
    <tspan fill="#2a4060">GET</tspan>
    <tspan fill="#2e4d70">  https://api.github.com</tspan>
  </text><rect width="87" height="50" x="62" y="214" fill="#3b82f6" filter="url(#d)" opacity=".18" rx="16"/><rect width="51" height="34" x="80" y="222" fill="url(#e)" rx="8"/><rect width="45" height="4" x="83" y="224" fill="#fff" opacity=".14" rx="2"/><g fill="#fff" clip-path="url(#f)" font-family="'SFMono-Regular','Cascadia Code','Fira Code',monospace" text-anchor="middle"><text x="106" y="234" font-size="10" font-weight="700" opacity=".92">DNS</text><text x="106" y="247" font-size="9.5" opacity=".8">12.4 ms</text></g><rect width="221" height="50" x="113" y="258" fill="#22c55e" filter="url(#d)" opacity=".14" rx="16"/><rect width="185" height="34" x="131" y="266" fill="url(#g)" rx="8"/><rect width="179" height="4" x="134" y="268" fill="#fff" opacity=".11" rx="2"/><g fill="#fff" clip-path="url(#h)" font-family="'SFMono-Regular','Cascadia Code','Fira Code',monospace" text-anchor="middle"><text x="224" y="279" font-size="11" font-weight="700" opacity=".92">Connect</text><text x="224" y="293" font-size="10.5" opacity=".8">45.2 ms</text></g><rect width="401" height="50" x="298" y="302" fill="#a855f7" filter="url(#d)" opacity=".16" rx="16"/><rect width="365" height="34" x="316" y="310" fill="url(#i)" rx="8"/><rect width="359" height="4" x="319" y="312" fill="#fff" opacity=".1" rx="2"/><g fill="#fff" clip-path="url(#j)" font-family="'SFMono-Regular','Cascadia Code','Fira Code',monospace" text-anchor="middle"><text x="499" y="323" font-size="11" font-weight="700" opacity=".92">TLS</text><text x="499" y="337" font-size="10.5" opacity=".8">89.1 ms</text></g><rect width="546" height="50" x="663" y="346" fill="#f97316" filter="url(#d)" opacity=".14" rx="16"/><rect width="510" height="34" x="681" y="354" fill="url(#k)" rx="8"/><rect width="504" height="4" x="684" y="356" fill="#fff" opacity=".09" rx="2"/><g fill="#fff" clip-path="url(#l)" font-family="'SFMono-Regular','Cascadia Code','Fira Code',monospace" text-anchor="middle"><text x="936" y="367" font-size="11" font-weight="700" opacity=".92">Wait</text><text x="936" y="381" font-size="10.5" opacity=".8">124.8 ms</text></g><rect width="90" height="50" x="1150" y="390" fill="#06b6d4" filter="url(#d)" opacity=".22" rx="16"/><rect width="9" height="34" x="1191" y="398" fill="url(#m)" rx="4"/><text x="1206" y="410" fill="#67e8f9" font-family="'SFMono-Regular','Cascadia Code','Fira Code',monospace" font-size="10" font-weight="700" opacity=".88">Transfer</text><text x="1206" y="423" fill="#67e8f9" font-family="'SFMono-Regular','Cascadia Code','Fira Code',monospace" font-size="9.5" opacity=".7">2.1 ms</text><path stroke="#1e3a52" d="M80 445h1120"/><path stroke="#2a4d6e" stroke-width="1.5" d="M80 445v8"/><path stroke="#2a4d6e" d="M489 445v8M899 445v8"/><path stroke="#2a4d6e" stroke-width="1.5" d="M1200 445v8"/><text x="80" y="466" fill="#3a5a78" font-family="'SFMono-Regular','Cascadia Code','Fira Code',monospace" font-size="10" text-anchor="middle">0</text><text x="489" y="466" fill="#3a5a78" font-family="'SFMono-Regular','Cascadia Code','Fira Code',monospace" font-size="10" text-anchor="middle">100 ms</text><text x="899" y="466" fill="#3a5a78" font-family="'SFMono-Regular','Cascadia Code','Fira Code',monospace" font-size="10" text-anchor="middle">200 ms</text><text x="1200" y="466" fill="#4a7090" font-family="'SFMono-Regular','Cascadia Code','Fira Code',monospace" font-size="10" text-anchor="end">total</text><text x="1200" y="478" fill="#5a8aaa" font-family="'SFMono-Regular','Cascadia Code','Fira Code',monospace" font-size="11" font-weight="700" text-anchor="end">273.6 ms</text><path stroke="#1a2d40" d="M80 498h1120"/><text x="80" y="518" fill="#4a6a85" font-family="'SFMono-Regular','Cascadia Code','Fira Code',monospace" font-size="12">pip install httptap</text><text x="1200" y="518" fill="#3a5570" font-family="'SFMono-Regular','Cascadia Code','Fira Code',monospace" font-size="12" text-anchor="end">Python 3.10–3.15  ·  Apache-2.0  ·  github.com/ozeranskii/httptap</text></svg>
